<svg width="202" height="334" viewBox="0 0 202 334" fill="none" xmlns="http://www.w3.org/2000/svg">
<g clip-path="url(#clip0_805_832)">
<path d="M4.07849 307.977C4.07849 313.796 6.38615 319.375 10.4938 323.489C14.6015 327.603 20.1726 329.915 25.9817 329.915H176.009C181.818 329.915 187.39 327.603 191.497 323.489C195.605 319.375 197.913 313.796 197.913 307.977V287.123L4.07849 287.174V307.977Z" fill="#F2F2F2"/>
<path d="M197.913 26.0689C197.913 20.2508 195.605 14.6711 191.497 10.5571C187.39 6.44306 181.818 4.13184 176.009 4.13184H25.9817C20.1726 4.13184 14.6015 6.44306 10.4938 10.5571C6.38615 14.6711 4.07849 20.2508 4.07849 26.0689V46.9278L197.913 46.8755V26.0689Z" fill="#F2F2F2"/>
<path d="M187.532 46.8725C131.65 46.8934 58.4087 46.9143 4.88961 46.9352H4.07849V287.183H4.86874C61.7918 287.16 140.988 287.139 197.913 287.117V46.8695L187.532 46.8725Z" fill="#68968B"/>
<path d="M197.913 43.2855H182.222L145.639 43.2975L97.9136 43.3139L48.8094 43.3348L8.06401 43.3497H4.07848C-0.527315 43.3497 -0.53477 50.5177 4.07848 50.5177C17.0604 50.5257 30.0423 50.5212 43.0242 50.5043L91.6214 50.4864L140.056 50.4714L178.574 50.458C184.85 50.458 191.151 50.6208 197.424 50.458C197.586 50.458 197.75 50.458 197.913 50.458C202.518 50.458 202.526 43.29 197.913 43.29V43.2855Z" fill="#1C1423"/>
<path d="M4.07853 290.767C28.6448 290.716 53.211 290.707 77.7772 290.74L157.085 290.714L197.913 290.7C202.517 290.7 202.526 283.531 197.913 283.531L123.099 283.557L43.8757 283.584C30.6095 283.584 17.3437 283.589 4.07853 283.599C-0.525772 283.608 -0.534719 290.776 4.07853 290.767Z" fill="#1C1423"/>
<path d="M176.009 326.328H29.8733C28.6373 326.328 27.3997 326.336 26.1636 326.328C23.7286 326.352 21.313 325.891 19.0582 324.969C16.8034 324.048 14.7546 322.686 13.0315 320.963C11.3084 319.239 9.94556 317.189 9.02275 314.932C8.09993 312.675 7.63562 310.257 7.65695 307.818C7.65695 307.083 7.65695 306.347 7.65695 305.611V29.3437C7.65695 25.2893 7.71212 21.4067 9.68177 17.6733C11.2425 14.6888 13.5842 12.1856 16.4562 10.4316C19.3282 8.67758 22.6224 7.73882 25.9862 7.71579C26.845 7.70683 27.7054 7.71579 28.5642 7.71579H164.619C168.366 7.71579 172.115 7.68592 175.863 7.71579C180.764 7.73433 185.457 9.69506 188.918 13.1694C192.38 16.6437 194.327 21.3491 194.334 26.257C194.392 33.873 194.334 41.489 194.334 49.105V283.188C194.334 291.316 194.358 299.445 194.334 307.573C194.381 312.492 192.479 317.23 189.044 320.746C185.609 324.263 180.921 326.272 176.009 326.332C171.408 326.386 171.396 333.554 176.009 333.5C182.775 333.413 189.236 330.669 194.002 325.859C198.768 321.048 201.457 314.556 201.491 307.779C201.509 305.361 201.491 302.942 201.491 300.523V32.5111C201.491 30.3861 201.51 28.2596 201.491 26.1346C201.424 19.3703 198.712 12.9019 193.937 8.11802C189.161 3.33416 182.704 0.616251 175.95 0.547787C164.132 0.440267 152.308 0.547787 140.49 0.547787H28.2541C27.1492 0.547787 26.0384 0.520907 24.935 0.573173C20.8387 0.77023 16.848 1.94139 13.2933 3.98975C9.73856 6.03811 6.72193 8.90478 4.49298 12.3526C1.26043 17.3538 0.5 22.9732 0.5 28.7449V306.047C0.5 313.431 2.49351 320.421 7.79114 325.847C10.1848 328.261 13.0303 330.18 16.165 331.492C19.2996 332.805 22.6618 333.486 26.0593 333.496C27.1805 333.506 28.2958 333.496 29.426 333.496H176.009C180.617 333.496 180.617 326.328 176.009 326.328Z" fill="#1C1423"/>
<path d="M80.5908 144.457C80.5565 140.378 81.7579 136.383 84.0365 133.002C86.3151 129.62 89.5638 127.009 93.354 125.514C97.4389 123.958 101.905 123.706 106.138 124.792C110.372 125.879 114.166 128.251 117 131.583C119.87 135.257 121.421 139.793 121.4 144.457C121.445 149.067 128.603 149.079 128.557 144.457C128.563 138.855 126.861 133.384 123.678 128.776C120.496 124.169 115.985 120.644 110.748 118.673C99.9816 114.658 86.8576 117.879 79.6201 126.909C75.6387 131.891 73.4582 138.076 73.4338 144.457C73.3876 149.072 80.5445 149.075 80.5908 144.457Z" fill="#1C1423"/>
<path d="M59.1616 153.128C59.1616 168.291 59.1527 185.621 59.1482 200.868C59.147 202.518 59.4706 204.153 60.1004 205.678C60.7303 207.203 61.654 208.588 62.8188 209.755C63.9837 210.923 65.3668 211.848 66.8891 212.48C68.4114 213.111 70.043 213.436 71.6908 213.436C88.7586 213.436 112.611 213.457 130.281 213.463C131.929 213.464 133.561 213.14 135.084 212.509C136.606 211.878 137.99 210.953 139.155 209.786C140.321 208.619 141.245 207.233 141.875 205.708C142.505 204.183 142.829 202.548 142.828 200.898C142.828 185.655 142.828 168.33 142.843 153.164C142.845 151.513 142.522 149.879 141.892 148.353C141.263 146.828 140.34 145.442 139.175 144.274C138.01 143.107 136.627 142.181 135.105 141.549C133.583 140.917 131.951 140.592 130.303 140.593L71.7131 140.575C70.066 140.573 68.4347 140.897 66.9124 141.527C65.3901 142.157 64.0067 143.082 62.8411 144.247C61.6756 145.413 60.7507 146.797 60.1194 148.321C59.4881 149.845 59.1626 151.478 59.1616 153.128Z" fill="#FCD95D"/>
<path d="M55.5832 153.128C55.5832 164.776 55.5797 176.424 55.5728 188.072C55.5728 191.014 55.5728 193.956 55.5728 196.899C55.4329 199.472 55.5794 202.052 56.0096 204.592C56.5367 206.824 57.5327 208.917 58.9314 210.733C60.3301 212.548 62.0993 214.044 64.1208 215.12C68.5939 217.444 73.5143 217.014 78.387 217.017H94.028L126.034 217.032C130.806 217.032 135.449 217.048 139.503 214.123C141.437 212.745 143.05 210.963 144.23 208.901C145.411 206.838 146.132 204.544 146.342 202.176C146.6 199.451 146.409 196.642 146.411 193.905C146.411 191.05 146.411 188.196 146.411 185.342C146.411 179.434 146.411 173.527 146.411 167.619C146.411 164.668 146.411 161.718 146.411 158.768C146.542 155.981 146.458 153.188 146.159 150.414C145.772 148.151 144.909 145.997 143.626 144.094C142.343 142.192 140.67 140.585 138.719 139.38C134.7 136.882 130.267 137.007 125.721 137.006H111.646L81.2379 136.991C76.8065 136.991 71.825 136.38 67.5055 137.543C65.2988 138.144 63.2444 139.207 61.4779 140.662C59.7115 142.117 58.2731 143.93 57.2576 145.982C56.1899 148.216 55.6186 150.655 55.5832 153.131C55.4893 157.745 62.6462 157.744 62.7401 153.131C62.7512 151.454 63.2252 149.814 64.1096 148.39C64.9941 146.967 66.2546 145.817 67.7515 145.067C70.9095 143.499 75.0576 144.157 78.469 144.159L105.683 144.171H119.088C123.167 143.961 127.256 143.977 131.334 144.217C132.906 144.41 134.401 145.011 135.67 145.961C136.939 146.911 137.939 148.176 138.57 149.632C139.133 151.178 139.369 152.826 139.261 154.469V162.488C139.261 173.076 139.258 183.663 139.251 194.251C139.251 198.326 140.055 203.078 137.313 206.513C135.067 209.334 131.99 209.879 128.601 209.877C109.642 209.877 90.6388 210.251 71.6848 209.852C69.9191 209.84 68.195 209.314 66.7229 208.337C65.2508 207.36 64.0943 205.976 63.3947 204.352C62.7195 202.159 62.4904 199.854 62.7208 197.571C62.7208 194.635 62.7208 191.698 62.7208 188.76C62.7208 176.88 62.7242 165.001 62.7312 153.123C62.7416 148.515 55.5847 148.507 55.5832 153.128Z" fill="#1C1423"/>
<path d="M112.205 169.653C112.205 166.675 111.024 163.82 108.922 161.714C106.82 159.609 103.968 158.426 100.995 158.426C98.0225 158.426 95.1713 159.609 93.0691 161.714C90.9669 163.82 89.7859 166.675 89.7859 169.653C89.7859 174.17 91.6154 177.603 94.7749 179.461C95.0157 179.606 95.2145 179.812 95.3516 180.057C95.4886 180.303 95.5592 180.58 95.5562 180.862C95.5562 182.975 95.5562 184.161 95.5487 190.161C95.5487 191.582 96.1107 192.946 97.1119 193.953C98.1131 194.961 99.4719 195.53 100.891 195.537H101.058C101.763 195.538 102.462 195.4 103.114 195.13C103.765 194.86 104.358 194.464 104.856 193.965C105.355 193.465 105.75 192.872 106.02 192.22C106.289 191.567 106.427 190.867 106.426 190.161C106.426 184.204 106.426 182.975 106.426 180.892C106.424 180.61 106.495 180.332 106.634 180.086C106.772 179.84 106.972 179.635 107.215 179.491C110.417 177.647 112.205 174.2 112.205 169.653Z" fill="#1C1423"/>
</g>
<defs>
<clipPath id="clip0_805_832">
<rect width="201" height="333" fill="white" transform="translate(0.5 0.5)"/>
</clipPath>
</defs>
</svg>
